<svg xmlns="http://www.w3.org/2000/svg" viewBox="0 0 793.09 927.65"><defs><style>.cls-1{fill:#005294;}</style></defs><g id="Layer_2" data-name="Layer 2"><g id="Layer_1-2" data-name="Layer 1"><path id="Essentials" class="cls-1" d="M139.19,434.41,137,436.19l-.75-.3q-2.19-4.18-4.22-8.44c-1.51-3.14-2.93-6.32-4.31-9.51C98.59,350.41,98,272.55,126.67,196.23,154.6,121.79,202,68.86,238,48q7.47-3.82,15.07-7.34c38.9-15.88,105.1-23.22,177.38-6,81.06,19.36,146.4,64.92,185.84,129.06,1.82,3,3.6,6,5.31,9,.72,1.27,1.42,2.54,2.12,3.82l-1.66,6.35q-10.43,2.82-21.35,6.08C527.55,211,444,246.43,359.23,291.53S198.32,386,139.19,434.41ZM778.77,169a31.41,31.41,0,0,1,3.07,15.31,49.66,49.66,0,0,1-1.46,9.94l-1.28,4.53c-5.18,16.14-17.56,35.23-36,56.25L533.67,581.77l117.64-62.55L793.09,785.87,526.44,927.65,384.66,661l117.69-62.58-384-9.66c-38.55,5.39-67.91,3.42-84.34-6.84-4.79-3-8.36-7.38-11-11.11-3.42-4.84-10-22-11.13-27.5S-3.5,448,.81,399.64A439.16,439.16,0,0,1,114.18,142.07a434.63,434.63,0,0,1,70.56-62c-27.11,30.16-51.51,70.2-67.43,112.62-15.09,40.19-22.46,80.8-21.92,120.69a279.84,279.84,0,0,0,24.3,111.17c1.42,3.17,2.87,6.33,4.41,9.46,1.34,2.74,2.73,5.45,4.17,8.16a4.83,4.83,0,0,0,.56.83c-45.58,38.6-76,74.28-86.37,98.75-5.3,12.53-.26,23.76,7.74,25.82,7,1.82,20.17,5.06,42.64,3.7,25.22-1.52,56.28-7.39,92.32-17.45s75.83-24,117.31-41.1L130.83,444.49v0a4.94,4.94,0,0,0,4.19-.21,5,5,0,0,0,2.06-6.76c-.16-.32-.32-.64-.49-1l.42-.35,178.65,71.05c41.14-17.42,83.78-37.77,126.18-60.32,46.67-24.81,91.27-51.35,131.73-78.22l48.49-185.78c2.81-.75,5.6-1.49,8.36-2.2h.06l2.67-.68-47,180.24c32.7-22.25,62.41-44.63,87.93-66.36,28.49-24.26,50.73-46.73,66.09-66.78,13.69-17.87,18.92-29.95,20.78-37.42,1.33-5.41,4.08-15.78-17.08-20.85s-62.2-1-110.67,11.17l.74-2.85h0a5,5,0,0,0-.41-3.61c-.61-1.15-1.24-2.29-1.86-3.44q-2.52-4.57-5.19-9A279.75,279.75,0,0,0,545.1,74.3C512.32,51.54,474.53,35,432.78,25A370.85,370.85,0,0,0,320.26,15.9,435.47,435.47,0,0,1,515.48,7.14a439.14,439.14,0,0,1,133.8,47.7c42.5,23.47,80.88,53.24,112.91,89.52C771.59,155,778.77,169,778.77,169ZM594.08,630.76,519,670.67a10.8,10.8,0,0,0-5.24,5.69q-1.41,3.66,1.31,8.77L584.77,816.2q2.72,5.12,6.54,6A10.77,10.77,0,0,0,599,821l75.53-40.16a3.59,3.59,0,0,0,1.58-1.66,5.41,5.41,0,0,0,.37-2.81,16.6,16.6,0,0,0-1.08-4.12,52.86,52.86,0,0,0-2.7-5.79,53.51,53.51,0,0,0-3.29-5.48,16.75,16.75,0,0,0-2.82-3.2,5.32,5.32,0,0,0-2.53-1.26,3.65,3.65,0,0,0-2.26.38l-54.15,28.79-22.55-42.41,45.44-24.16a3.8,3.8,0,0,0,1.6-1.6,4.82,4.82,0,0,0,.44-2.69,15.42,15.42,0,0,0-1-4,58.88,58.88,0,0,0-5.9-11.1,15.31,15.31,0,0,0-2.78-3.14,5.39,5.39,0,0,0-2.51-1.2,3.55,3.55,0,0,0-2.25.38L572.64,720l-19.52-36.72,53.68-28.55a3.28,3.28,0,0,0,1.52-1.62,5.64,5.64,0,0,0,.32-2.78,16.6,16.6,0,0,0-1.08-4.12,50.38,50.38,0,0,0-2.64-5.68,55.62,55.62,0,0,0-3.35-5.6,17.86,17.86,0,0,0-2.85-3.25,5.08,5.08,0,0,0-2.48-1.29A3.44,3.44,0,0,0,594.08,630.76ZM342,517.69l174.61,69.43,49.49-189.6c-35.32,22.68-73.86,45.29-114.82,67.06C414,484.39,377.3,502.15,342,517.69Zm150.15,70.47L329,523.31c-60.84,26.06-117.21,45.29-164.74,56.6ZM709,289.64c-34,31.46-78.41,65.6-130.48,99.8L532.78,564.62Z"/></g></g></svg>